<svg id="Capa_1" data-name="Capa 1" xmlns="http://www.w3.org/2000/svg" viewBox="0 0 1112 181"><defs><style>.cls-1{fill:#fff;}</style></defs><path class="cls-1" d="M31.87,150.36v-2.82H32V26.76H67.76c28.2,0,39.9,13.6,39.9,27.72,0,11.83-8,24-21.15,29.31,20.67,2.65,31.08,17.84,31.08,33,0,16.78-12.66,33.55-38,33.55ZM71.45,86.62c-6.57,0-13.78-1.59-21.64-5.12a45.56,45.56,0,0,0,15.07,2.65c18.58,0,27.88-14.13,27.88-28.08,0-13.42-8.66-26.48-26-26.48H46.61v118H77.86c15.22,0,22.75-15.36,22.75-30.73S93.08,86.09,77.86,86.09A38.24,38.24,0,0,1,71.45,86.62Z"/><path class="cls-1" d="M79.62,150.86H31.37V147h.16V26.26H67.76c29.82,0,40.4,15.2,40.4,28.22,0,12.1-7.9,23.57-19.84,29.08,20.55,3.4,29.77,19,29.77,33.25C118.09,133.21,106.05,150.86,79.62,150.86Zm-47.25-1H79.62c25.75,0,37.47-17.13,37.47-33.05,0-14.23-9.47-29.81-30.65-32.52l-1.9-.24,1.78-.72c12.47-5,20.84-16.62,20.84-28.85,0-13.16-10.35-27.22-39.4-27.22H32.53V148h-.16ZM77.86,148H46.11V29.09H66.8c18.18,0,26.46,14,26.46,27,0,13.76-8.88,28.58-28.38,28.58a43.39,43.39,0,0,1-6.43-.48,46.66,46.66,0,0,0,13,2,37.52,37.52,0,0,0,6.32-.52h0c16.06,0,23.33,16.18,23.33,31.21S93.83,148,77.86,148Zm-30.75-1H77.86c15.28,0,22.25-15.67,22.25-30.23s-7-30.22-22.25-30.22a38,38,0,0,1-6.41.53A53.65,53.65,0,0,1,49.61,82L50,81a45,45,0,0,0,14.9,2.62c18.81,0,27.38-14.3,27.38-27.58,0-12.51-8-26-25.46-26H47.11Z"/><path class="cls-1" d="M167.59,26.76h30.6c31.73,0,45.35,17.48,45.35,34.61,0,15.18-10.74,30-29.49,31.78,33.17,6.71,29,59.86,49.36,57.21a37.94,37.94,0,0,1-10.9,1.95c-29.64,0-24.68-52.09-47.43-59.33a66.21,66.21,0,0,1-21-6.54,49.94,49.94,0,0,0,15.22,2.48c19.23,0,29-13.6,29-27.9,0-15.19-11.21-31.08-34-31.43l-12,.17v120.6H167.59Z"/><path class="cls-1" d="M252.51,152.81c-16.61,0-22.55-15.95-28.3-31.36-4.75-12.76-9.24-24.8-19.28-28a66.25,66.25,0,0,1-21.06-6.56l.37-.92a49.83,49.83,0,0,0,15.07,2.45c19.58,0,28.5-14.21,28.5-27.4,0-14.65-10.47-30.58-33.47-30.93l-11.51.17v120.6H167.09V26.26h31.1c31.67,0,45.85,17.63,45.85,35.11a32.14,32.14,0,0,1-27.28,31.94c16.4,4.8,23.19,21.68,28.7,35.37,4.82,12,9,22.34,17.88,21.19l.21,1A38.61,38.61,0,0,1,252.51,152.81ZM189.93,88.47a59.59,59.59,0,0,0,15.21,4c10.59,3.36,15.17,15.63,20,28.62,5.62,15.09,11.44,30.71,27.36,30.71a32.53,32.53,0,0,0,7.52-1c-7.33-1.41-11.16-10.92-15.5-21.72-6-14.92-12.8-31.82-30.58-35.42L210.64,93l3.37-.31c19.05-1.8,29-17.1,29-31.29,0-17-13.87-34.11-44.85-34.11h-30.1v122.6h13.74V29.27l12.51-.18C217,29.44,228.81,45.42,228.81,61c0,13.67-9.23,28.4-29.5,28.4A48,48,0,0,1,189.93,88.47Z"/><path class="cls-1" d="M415.46,150.36H399.28l-6.41-13.77c-9.29-17.3-30.44-34.08-49.35-34.08-8.81,0-17.14,3.89-23.39,13.07,5.44-11,14.1-15.19,23.87-15.19,14.58,0,31.57,10.07,42.94,23.31L350.41,44.42l-34.93,76.1c-3.69,8.12-5,14.66-5,19.43,0,5.29,1.6,8.47,3.05,9,.64.18.64,1.41.64,1.41H299l56.88-123.6h2.72Z"/><path class="cls-1" d="M416.24,150.86H399l-6.54-14.06C383.5,120.21,362.77,103,343.52,103c-9.31,0-17.26,4.44-23,12.85l-.86-.5C324.78,105.09,333,99.89,344,99.89c13.23,0,29.07,8.16,41.1,21L350.41,45.61l-34.48,75.12c-4.06,9-4.92,15.4-4.92,19.22,0,5.19,1.59,8.12,2.72,8.53.94.26,1,1.72,1,1.88v.5H298.2l57.34-124.6h3.36l.14.29Zm-16.64-1h15.08L358.26,27.26h-2.08l-56.42,122.6h13.88c-.06-.23-.14-.4-.22-.43-1.66-.61-3.41-3.83-3.41-9.48,0-3.92.87-10.5,5-19.63l35.39-77.1,38.48,83.52L386.56,124c-11.88-13.84-29-23.14-42.56-23.14-8,0-14.48,2.87-19.29,8.53A27,27,0,0,1,343.52,102c19.62,0,40.73,17.46,49.79,34.34Z"/><path class="cls-1" d="M463.21,26.76h6.73l84.93,100.3V61c0-20.49-6.73-31.79-9.62-32.85-.48-.17-.48-1.41-.48-1.41h12.66v123.6h-2.56L465.78,45.12v66.75c0,25.07,6.89,36,9.77,37.08.64.18.64,1.41.64,1.41h-13Z"/><path class="cls-1" d="M557.93,150.86h-3.29l-.15-.17L466.28,46.49v65.38c0,25.29,6.92,35.69,9.44,36.61.95.26,1,1.72,1,1.88v.5h-14V26.26h7.47l.15.18,84,99.25V61c0-20.35-6.65-31.41-9.29-32.38-.73-.26-.81-1.4-.81-1.88v-.5h13.66Zm-2.83-1h1.83V27.26H545.32a1,1,0,0,0,.15.47c2.88,1.05,9.9,12.16,9.9,33.29v67.4L469.71,27.26h-6v122.6h11.92c-.05-.23-.13-.4-.21-.43-3.2-1.17-10.14-12.24-10.14-37.56V43.76Z"/><path class="cls-1" d="M612.39,26.76H646c36.37.35,65.86,26.66,65.86,61.8S682.41,150,646,150.36H612.39Zm32.85,120.78c29.48,0,51-27.9,51-59s-21.47-59-51-59H627v118Z"/><path class="cls-1" d="M612.39,150.86h-.5V26.26H646c37.21.36,66.36,27.73,66.36,62.3s-29.15,61.94-66.35,62.3Zm.5-1H646c36.65-.35,65.36-27.28,65.36-61.3S682.69,27.62,646,27.26H612.89ZM645.24,148H626.47V29.09h18.77c28.37,0,51.45,26.68,51.45,59.47S673.61,148,645.24,148Zm-17.77-1h17.77c27.82,0,50.45-26.23,50.45-58.48s-22.63-58.47-50.45-58.47H627.47Z"/><path class="cls-1" d="M760.93,26.76h14.74v123.6H760.93Z"/><path class="cls-1" d="M776.17,150.86H760.43V26.26h15.74Zm-14.74-1h13.74V27.26H761.43Z"/><path class="cls-1" d="M831.43,26.76h6.73l84.92,100.3V61c0-20.49-6.73-31.79-9.61-32.85C913,28,913,26.76,913,26.76h12.66v123.6h-2.57L834,45.12v66.75c0,25.07,6.89,36,9.78,37.08.64.18.64,1.41.64,1.41h-13Z"/><path class="cls-1" d="M926.15,150.86h-3.3l-.15-.17L834.49,46.49v65.38c0,25.29,6.93,35.69,9.45,36.61.94.26,1,1.72,1,1.88v.5h-14V26.26h7.46l.15.18,84,99.25V61c0-20.35-6.64-31.41-9.28-32.38-.73-.26-.81-1.4-.81-1.88v-.5h13.66Zm-2.84-1h1.84V27.26H913.53a1.15,1.15,0,0,0,.15.47c2.89,1.05,9.9,12.16,9.9,33.29v67.4L837.93,27.26h-6v122.6h11.92c-.06-.23-.14-.4-.22-.43-3.2-1.17-10.14-12.24-10.14-37.56V43.76Z"/><path class="cls-1" d="M1067.13,141.36v-51h-39.42V87.86h53.52v62.5L1067.29,144c-5.45,5.82-13,9-26.92,9-44.06,0-66-32.31-66-64.45,0-41.32,29.16-63.39,62.49-63.39,23.07,0,30.92,9.71,30.92,17.48,0,5.83-4.48,10.77-10.25,9,0-15-13.78-23.49-25.48-23.49-29.32,0-42.62,23.31-42.62,49.44,0,33.38,21.63,71.34,59.12,71.34C1057.52,149,1062.8,146.12,1067.13,141.36Z"/><path class="cls-1" d="M1040.37,153.51c-20.55,0-37.8-7-49.9-20.34-10.71-11.78-16.61-27.62-16.61-44.61,0-19.58,6.53-36,18.9-47.55,11.3-10.54,27-16.34,44.09-16.34,23.19,0,31.42,9.69,31.42,18a10.35,10.35,0,0,1-3.9,8.37,7.72,7.72,0,0,1-7,1.12L1057,52v-.37c0-14.2-13-23-25-23-31.09,0-42.12,26.37-42.12,48.94,0,34.07,22.41,70.84,58.62,70.84,8,0,13.39-2.18,18.09-7.29V90.83h-39.42V87.36h54.52v63.78l-14.32-6.53C1061.43,150.85,1053.31,153.51,1040.37,153.51Zm-3.52-127.84c-30.86,0-62,19.45-62,62.89,0,30.8,20.5,63.95,65.51,63.95,12.82,0,20.76-2.64,26.56-8.84l.24-.27,13.56,6.19V88.36h-52.52v1.47h39.42v51.72l-.13.14c-4.93,5.44-10.6,7.76-19,7.76-22.12,0-36.15-12.7-44-23.36-9.92-13.41-15.6-31.08-15.6-48.48,0-13.71,3.7-26.08,10.42-34.82,7.6-9.89,18.91-15.12,32.7-15.12,12.39,0,25.75,9,26,23.61a6.6,6.6,0,0,0,5.77-1.07,9.45,9.45,0,0,0,3.49-7.56C1067.27,34.82,1059.3,25.67,1036.85,25.67Z"/></svg>