<svg id="Capa_1" data-name="Capa 1" xmlns="http://www.w3.org/2000/svg" viewBox="0 0 1107 184"><defs><style>.cls-1{fill:#606060;}</style></defs><path class="cls-1" d="M28.36,28.24q4.73.17,12.36.33T56,28.74q8.91,0,17-.17t11.54-.16q22.53,0,33.71,7.36t11.18,18.9a22.13,22.13,0,0,1-3.82,11.87q-3.81,6-11.81,10.71T93.05,84.11v.33q17.08,1.17,27.08,5.69T134.48,101a23.06,23.06,0,0,1,4.37,13.22q0,10.53-6,17.73t-17.26,11q-11.28,3.76-26.9,3.76-4.35,0-12.54-.25t-19.8-.25q-8,0-15.63.08t-12.36.42v-3.34A34.92,34.92,0,0,0,37.09,142a6,6,0,0,0,3.9-4,30.45,30.45,0,0,0,1-9V46a30.41,30.41,0,0,0-1-9.12,6.25,6.25,0,0,0-4-4,29.2,29.2,0,0,0-8.64-1.26Zm53.79,3.34q-7.08,0-9.18,2.85T70.89,46v83a30,30,0,0,0,1,8.86,6.06,6.06,0,0,0,3.64,4,23.45,23.45,0,0,0,7.9,1q13.26,0,19.26-7.61t6-21.66q0-12.89-7-19.91t-23.17-7H63.07V83.77H78.7q8.53,0,13.17-3.76a19,19,0,0,0,6.36-10A50.58,50.58,0,0,0,100,56.51q0-12.37-4.18-18.65T82.15,31.58Z"/><path class="cls-1" d="M163.56,28.24q4.55.17,12.26.33t15.36.17q8.72,0,16.9-.17t11.63-.16q16.89,0,28.07,3.42t16.72,10A23.5,23.5,0,0,1,270,57.51,28.34,28.34,0,0,1,267.5,69a29.23,29.23,0,0,1-8.63,10.71q-6.09,4.93-16.63,7.86t-26.53,2.92H198.27V87.12h15.62q10.73,0,16.27-3.76a19.24,19.24,0,0,0,7.63-10,44.11,44.11,0,0,0,2.09-14q0-13.22-5.09-20.49t-17.44-7.28q-7.09,0-9.18,2.85T206.08,46v83a30.45,30.45,0,0,0,1,9,6,6,0,0,0,3.91,4,34.74,34.74,0,0,0,8.72,1.34v3.34q-4.91-.33-12.36-.42t-15.08-.08q-8.73,0-16.45.08t-12.26.42v-3.34a34.91,34.91,0,0,0,8.72-1.34,6,6,0,0,0,3.91-4,30.79,30.79,0,0,0,1-9V46a30.74,30.74,0,0,0-1-9.12,6.27,6.27,0,0,0-4-4,29.18,29.18,0,0,0-8.63-1.26ZM197.9,87.62q7.82.16,13.54.67t10.08.92q4.36.42,7.82.59,16.53,1.33,24.44,6.52t10.27,15.56l4.17,17.23q1.63,6.69,3.46,9.36a6,6,0,0,0,5.27,2.68,8.66,8.66,0,0,0,3.9-1.09,17.52,17.52,0,0,0,3.37-2.76l2.54,2a29.84,29.84,0,0,1-10.54,7.44A36.58,36.58,0,0,1,262.59,149q-9.81,0-16.17-3.84T238.06,131l-3.27-16.73a84.66,84.66,0,0,0-3.09-12.3,21,21,0,0,0-5-8.36c-2.12-2.06-5.06-3.1-8.81-3.1H198.27Z"/><path class="cls-1" d="M363.62,27.9l44.16,104.72q2.54,6,5.72,8.28a11.75,11.75,0,0,0,5.72,2.43v3.34q-5.45-.33-12.81-.42t-14.81-.08q-8.36,0-15.81.08t-11.81.42v-3.34q9.27-.35,11.72-2.93t-1.18-11.13L343.63,51.49l3.27-4.35-27.62,66.24q-4,9.21-4.81,15.06t.91,9A9.27,9.27,0,0,0,321,141.9a34.38,34.38,0,0,0,9.36,1.43v3.34q-6-.33-11.45-.42t-11.09-.08q-4,0-7.54.08t-6.27.42v-3.34q3.83-.68,7.82-4.52t7.81-13L351.08,27.9c1.94.12,4,.17,6.27.17S361.68,28,363.62,27.9Zm12.72,70.59v3.35H322.19L324,98.49Z"/><path class="cls-1" d="M553.87,28.24v3.34c-3.88.45-6.78,1.37-8.72,2.76A10.59,10.59,0,0,0,541.24,41a62.64,62.64,0,0,0-1,12.71V147c-1.45-.11-2.93-.16-4.45-.16s-3.12,0-4.81.16L452.11,55v64.24a70.14,70.14,0,0,0,1.09,14.13,10.09,10.09,0,0,0,4.82,7q3.72,2.08,11.72,2.93v3.34q-3.45-.33-9.09-.42t-10.53-.08q-4.19,0-8.54.08c-2.91.06-5.34.2-7.27.42v-3.34q5.81-.84,8.72-2.85t3.91-6.61a62.78,62.78,0,0,0,1-12.63V46a30.74,30.74,0,0,0-1-9.12,6.27,6.27,0,0,0-4-4,29.18,29.18,0,0,0-8.63-1.26V28.24c1.93.11,4.36.22,7.27.33s5.75.17,8.54.17,5.69,0,8.35-.17,5.09-.22,7.27-.33L536.06,108V55.67A69.41,69.41,0,0,0,535,41.54a10.32,10.32,0,0,0-4.81-7.11q-3.74-2.18-11.72-2.85V28.24q3.45.17,9.08.33c3.76.12,7.27.17,10.54.17,2.91,0,5.79,0,8.63-.17S551.93,28.35,553.87,28.24Z"/><path class="cls-1" d="M635.09,28.24q35.8,0,53.25,15t17.44,42.91q0,18.22-8.54,31.86t-24.8,21.16q-16.28,7.53-39,7.53c-1.94,0-4.48,0-7.63-.17s-6.43-.19-9.82-.25-6.42-.08-9.08-.08q-8,0-15.72.08t-12.26.42v-3.34a34.91,34.91,0,0,0,8.72-1.34,6,6,0,0,0,3.9-4,30.45,30.45,0,0,0,1-9V46a30.41,30.41,0,0,0-1-9.12,6.23,6.23,0,0,0-4-4A29.18,29.18,0,0,0,579,31.58V28.24l12.26.42q7.72.24,15.36.08,6.54-.16,14.81-.33T635.09,28.24Zm-.18,3q-8.35,0-10.9,2.84t-2.54,11.54v83.64q0,8.7,2.63,11.55t11,2.84q15.27,0,24.08-6.61t12.63-19.32q3.81-12.7,3.82-30.94,0-18.74-4.09-31t-13-18.4Q649.63,31.26,634.91,31.25Z"/><path class="cls-1" d="M788.1,28.24v3.34a29.91,29.91,0,0,0-8.82,1.26,6,6,0,0,0-3.9,4,33.25,33.25,0,0,0-.91,9.12v83a30.45,30.45,0,0,0,1,9,6,6,0,0,0,4,4,35.56,35.56,0,0,0,8.64,1.34v3.34q-4.92-.33-12.36-.42t-15.08-.08q-8.73,0-16.36.08t-12.35.42v-3.34a34.91,34.91,0,0,0,8.72-1.34,6,6,0,0,0,3.91-4,30.86,30.86,0,0,0,1-9V46a30.81,30.81,0,0,0-1-9.12,6.27,6.27,0,0,0-4-4A29.18,29.18,0,0,0,732,31.58V28.24q4.71.17,12.35.33t16.36.17q7.62,0,15.08-.17T788.1,28.24Z"/><path class="cls-1" d="M933.64,28.24v3.34q-5.8.68-8.72,2.76A10.53,10.53,0,0,0,921,41a61.92,61.92,0,0,0-1,12.71V147c-1.46-.11-2.94-.16-4.46-.16s-3.12,0-4.81.16L831.89,55v64.24A69.41,69.41,0,0,0,833,133.37a10,10,0,0,0,4.81,7q3.72,2.08,11.72,2.93v3.34q-3.45-.33-9.08-.42t-10.54-.08q-4.18,0-8.54.08c-2.91.06-5.34.2-7.27.42v-3.34q5.8-.84,8.72-2.85t3.91-6.61a62.78,62.78,0,0,0,1-12.63V46a30.74,30.74,0,0,0-1-9.12,6.27,6.27,0,0,0-4-4,29.18,29.18,0,0,0-8.63-1.26V28.24c1.93.11,4.36.22,7.27.33s5.75.17,8.54.17,5.69,0,8.36-.17,5.08-.22,7.26-.33L915.84,108V55.67a70.14,70.14,0,0,0-1.09-14.13,10.36,10.36,0,0,0-4.82-7.11q-3.72-2.18-11.72-2.85V28.24q3.45.17,9.09.33c3.75.12,7.26.17,10.54.17,2.9,0,5.78,0,8.63-.17S931.71,28.35,933.64,28.24Z"/><path class="cls-1" d="M1024.86,25.9q12.36,0,20.17,3.17a65.33,65.33,0,0,1,14,7.7,7,7,0,0,0,3.64,1.51q3.45,0,4.54-10h4.18c-.24,4.35-.43,9.62-.54,15.81s-.19,14.41-.19,24.67h-4.18a84.44,84.44,0,0,0-3.9-17.48,27.5,27.5,0,0,0-9.72-12.8,31.31,31.31,0,0,0-10.82-6,40.41,40.41,0,0,0-13-2.17q-10,0-17.08,4.76a36.8,36.8,0,0,0-11.63,13,66,66,0,0,0-6.72,18.48,102.2,102.2,0,0,0-2.18,21.33q0,30.1,9,44t25.9,13.89a26.07,26.07,0,0,0,7.63-1,20.39,20.39,0,0,0,5.27-2.34,9.26,9.26,0,0,0,3.45-3.6,12.13,12.13,0,0,0,.91-5.1V117.23q0-7.7-1.36-11.46a8.11,8.11,0,0,0-5.36-5.1,42,42,0,0,0-11.63-1.51V95.82q3.81.17,9.17.25l11.18.17c3.87.05,7.45.08,10.72.08q7.64,0,14-.17t10.36-.33v3.34a12,12,0,0,0-5.18,1.17q-1.73,1-2.36,4a48,48,0,0,0-.64,9.2v33.12h-3.63a23.5,23.5,0,0,0-1.37-6.19q-1.18-3.34-3.9-3.34a13.08,13.08,0,0,0-3.36.58,36.59,36.59,0,0,0-6.46,2.93,92.36,92.36,0,0,1-14.17,5.94A50.36,50.36,0,0,1,1024,149q-21.08,0-35.61-7.19a48.92,48.92,0,0,1-21.9-20.66q-7.35-13.45-7.36-32.37,0-19.07,8.45-33.12a58.73,58.73,0,0,1,23.26-21.91Q1005.6,25.9,1024.86,25.9Z"/></svg>